<svg width="374.19147193925784" height="69.04758432919422" viewBox="-4 0 374.19147193925784 69.04758432919422" class="css-1j8o68f"><defs id="SvgjsDefs2778"></defs><g id="SvgjsG2779" featurekey="HKaMnE-0" transform="matrix(0.5804758432919421,0,0,0.5804758432919421,-5.613722827744052,11)" fill="#ffffff"><title xmlns="http://www.w3.org/2000/svg">all</title><g xmlns="http://www.w3.org/2000/svg" data-name="Go to Web - Orange"><polygon points="57.99 44.51 57.99 94.81 70.94 81.87 80.34 100 87.17 96.46 78.12 79.02 95.59 79.02 57.99 44.51"></polygon><path d="M96.69,53.76c0.09-.66.2-1.32,0.27-2,0.15-1.51.24-3,.24-4.58s-0.08-3-.22-4.46c-0.07-.78-0.2-1.54-0.31-2.3-0.08-.54-0.13-1.09-0.22-1.62h0a47.19,47.19,0,0,0-38-38l0,0C57.77,0.65,57.14.59,56.52,0.5s-1.35-.21-2-0.28C53,0.08,51.51,0,50,0s-3,.08-4.48.22c-0.69.07-1.36,0.18-2,.28s-1.26.14-1.87,0.25l0,0a47.19,47.19,0,0,0-38,38l0,0c-0.1.57-.15,1.16-0.24,1.74S3.09,42,3,42.73c-0.14,1.47-.22,3-0.22,4.47s0.08,3,.22,4.46c0.07,0.77.2,1.51,0.31,2.27,0.08,0.55.13,1.11,0.23,1.66l0,0a47.19,47.19,0,0,0,38,38l0,0c0.58,0.1,1.17.16,1.75,0.24s1.44,0.22,2.18.29c1.47,0.14,3,.22,4.46.22h0.14v-11H50a36.12,36.12,0,0,1-6.18-.57A96.25,96.25,0,0,1,40,64.14c3.25,0.2,6.6.32,10,.32h0.14V58.17H50c-3.77,0-7.31-.13-10.62-0.35C39.15,54.51,39,51,39,47.2s0.13-7.31.35-10.63c3.32-.22,6.86-0.35,10.63-0.35s7.3,0.13,10.61.35c0,0.19,0,.37,0,0.57a7.72,7.72,0,0,1,2.65,1.59l3.87,3.55c-0.05-1.74-.15-3.43-0.26-5.12A96.67,96.67,0,0,1,85.64,41a36.46,36.46,0,0,1,.56,6.18,35.94,35.94,0,0,1-.54,6.17c-1.49.49-3.07,1-4.86,1.42l3.7,3.39h0l8.72,8A47,47,0,0,0,96.4,55.61l0,0C96.55,55,96.61,54.36,96.69,53.76Zm-60-40.18a114.47,114.47,0,0,0-3.06,17.22,114.3,114.3,0,0,0-17.21,3.05A36.37,36.37,0,0,1,36.65,13.58Zm0,67.25A36.36,36.36,0,0,1,16.38,60.55a114.26,114.26,0,0,0,17.21,3.06A114.65,114.65,0,0,0,36.64,80.82ZM33.06,57.24a96.5,96.5,0,0,1-18.7-3.85,34,34,0,0,1,0-12.37,96.5,96.5,0,0,1,18.7-3.85c-0.2,3.25-.32,6.6-0.32,10S32.86,54,33.06,57.24ZM50,29.94c-3.43,0-6.78.11-10,.31a96.43,96.43,0,0,1,3.85-18.7,33.91,33.91,0,0,1,12.36,0A96.54,96.54,0,0,1,60,30.26C56.78,30.05,53.43,29.94,50,29.94Zm16.39,0.85a114.66,114.66,0,0,0-3.05-17.22A36.36,36.36,0,0,1,83.62,33.85,114.22,114.22,0,0,0,66.39,30.79Z"></path></g></g><g id="SvgjsG2780" featurekey="J3GnXt-0" transform="matrix(2.1525583521231484,0,0,2.1525583521231484,71.40600849320067,11.821856815709033)" fill="#ffffff"><path d="M17.43 17.65 l0.040136 2.3242 l-1.1621 0.02002 c-0.015039 0.0002539 -1.0275 0.017129 -3.0076 0.017129 c-1.0032 0 -2.2546 -0.0044532 -3.7506 -0.017402 c-2.4132 -0.021054 -4.3428 -0.54212 -5.7348 -1.549 c-1.3835 -1.0007 -2.1454 -2.4562 -2.1454 -4.0986 c0 -1.6413 0.76854 -3.1002 2.164 -4.1074 c1.383 -0.99846 3.3616 -1.531 5.7218 -1.5402 c4.441 -0.017129 6.719 0.00027344 6.7416 0.00041016 l1.1622 0.0091602 l-0.01832 2.3246 l-1.1622 -0.0091602 c-0.022364 -0.0002539 -2.2892 -0.01752 -6.7144 -0.00039062 c-3.4358 0.01334 -5.5702 1.2866 -5.5702 3.3232 c0 0.90194 0.39812 1.6473 1.1831 2.215 c0.97936 0.70836 2.4984 1.0916 4.3926 1.1081 c4.4144 0.038574 6.6758 0.00089844 6.698 0.00050782 z M35.765 9.649 c0.91776 0.9099 0.9102 2.226 0.89856 4.2182 c-0.00091796 0.14832 -0.0016992 0.302 -0.0023438 0.46118 c-0.0044532 1.1823 -0.0075976 2.0366 -0.13172 2.757 c-0.10568 0.6142 -0.34974 1.4995 -1.2436 2.0954 c-1.1321 0.75466 -2.8232 0.77168 -6.5282 0.8087 c-0.57862 0.0057618 -1.1122 0.010078 -1.6046 0.010078 c-2.9354 0 -4.411 -0.15537 -5.3538 -1.0922 c-0.98198 -0.9757 -0.97648 -2.4126 -0.96838 -4.5876 c0.0090234 -2.4268 0.014512 -3.8916 1.2447 -4.801 c1.0614 -0.7845 2.6028 -0.80516 5.9798 -0.85054 l0.67396 -0.0092774 c4.2088 -0.060156 5.9508 -0.085136 7.0354 0.99024 z M34.331 13.854199999999999 c0.006543 -1.1448 0.013457 -2.3288 -0.20864 -2.5488 c-0.27556 -0.27322 -1.5123 -0.33638 -3.1584 -0.33638 c-0.67736 0 -1.4242 0.010723 -2.2018 0.021836 l-0.67606 0.0092774 c-2.4194 0.032442 -4.1674 0.055976 -4.625 0.39406 c-0.2888 0.21346 -0.2935 1.4744 -0.29898 2.9346 c-0.0050976 1.3559 -0.0099414 2.6366 0.28016 2.9248 c0.4554 0.45254 2.9138 0.42782 5.2914 0.40428 c2.7302 -0.027206 4.7028 -0.046954 5.258 -0.4171 c0.32686 -0.2179 0.33104 -1.3516 0.33692 -2.9208 c0.00052734 -0.16074 0.0014453 -0.316 0.0023632 -0.46588 z M54.493 10.8272 c0.95568 0.96942 1.4718 2.2114 1.4534 3.497 c-0.02289 1.5915 -0.78998 3.0436 -2.16 4.0892 c-1.4271 1.089 -3.4354 1.6646 -5.8082 1.6646 c-4.5288 0 -6.808 -0.0667 -6.8304 -0.067344 l-1.1387 -0.03414 l0 -11.373 l7.9691 0 c3.5728 0 5.5148 1.2092 6.5148 2.2236 z M47.97840000000001 17.7304 c3.8486 0 5.5962 -1.7276 5.6208 -3.4396 c0.009414 -0.66168 -0.25962 -1.2893 -0.77796 -1.8153 c-0.9689 -0.9829 -2.6888 -1.5241 -4.843 -1.5241 l-5.6214 0 l0 6.737 c1.09 0.018965 2.963 0.041992 5.6214 0.041992 z M75.247 10.9512 l-13.59 0.000019531 l0 2.1863 l9.0642 0.03375 l-0.0086328 2.3478 l-9.0556 -0.03375 l0 2.1782 l13.59 0 l0 2.3477 l-15.938 0 l0 -11.407 l15.938 0 l0 2.3476 z M94.527 10.9648 l-13.59 0 l0 2.1824 l9.0599 0 l0 2.3476 l-9.0599 0 l0 4.5299 l-2.3477 0 l0 -11.407 l15.938 0 l0 2.3476 z M100.1938 20.02461 l-2.3246 0 l0 -11.295 l2.3246 0 l0 11.295 z M118.024 15.259599999999999 c0.97348 0.98054 1.4993 2.2306 1.4803 3.5202 l-0.017129 1.1737 l-2.3474 -0.03414 l0.017129 -1.1737 c0.0096876 -0.66232 -0.26654 -1.2957 -0.79898 -1.832 c-0.98028 -0.98734 -2.6902 -1.5207 -4.8136 -1.507 c-2.1674 0.01582 -3.8956 0.57064 -4.8658 1.5624 c-0.50916 0.5204 -0.77336 1.1346 -0.76394 1.7765 l0.017129 1.1737 l-2.3474 0.03414 l-0.017012 -1.1737 c-0.018438 -1.2628 0.4906 -2.489 1.4332 -3.4524 c0.35836 -0.36648 0.83954 -0.7586 1.474 -1.1122 c-0.54722 -0.302 -1.0323 -0.66166 -1.4439 -1.0763 c-0.97348 -0.98054 -1.4993 -2.2306 -1.4804 -3.5202 l0.017129 -1.1737 l2.3474 0.03414 l-0.017129 1.1737 c-0.0096876 0.66232 0.26654 1.2957 0.79898 1.832 c0.98014 0.98734 2.6904 1.5237 4.8134 1.507 c2.1676 -0.01582 3.8956 -0.57064 4.8658 -1.5624 c0.50916 -0.5203 0.77322 -1.1346 0.76394 -1.7765 l-0.017012 -1.1737 l2.3474 -0.03414 l0.017129 1.1737 c0.01832 1.2629 -0.49072 2.489 -1.4333 3.4524 c-0.3585 0.36622 -0.83942 0.75832 -1.4736 1.1119 c0.5471 0.30212 1.0319 0.66194 1.4435 1.0765 z M137.32399999999998 15.259599999999999 c0.97348 0.98054 1.4993 2.2306 1.4803 3.5202 l-0.017129 1.1737 l-2.3474 -0.03414 l0.017129 -1.1737 c0.0096876 -0.66232 -0.26654 -1.2957 -0.79898 -1.832 c-0.98028 -0.98734 -2.6902 -1.5207 -4.8136 -1.507 c-2.1674 0.01582 -3.8956 0.57064 -4.8658 1.5624 c-0.50916 0.5204 -0.77336 1.1346 -0.76394 1.7765 l0.017129 1.1737 l-2.3474 0.03414 l-0.017012 -1.1737 c-0.018438 -1.2628 0.4906 -2.489 1.4332 -3.4524 c0.35836 -0.36648 0.83954 -0.7586 1.474 -1.1122 c-0.54722 -0.302 -1.0323 -0.66166 -1.4439 -1.0763 c-0.97348 -0.98054 -1.4993 -2.2306 -1.4804 -3.5202 l0.017129 -1.1737 l2.3474 0.03414 l-0.017129 1.1737 c-0.0096876 0.66232 0.26654 1.2957 0.79898 1.832 c0.98014 0.98734 2.6904 1.5237 4.8134 1.507 c2.1676 -0.01582 3.8956 -0.57064 4.8658 -1.5624 c0.50916 -0.5203 0.77322 -1.1346 0.76394 -1.7765 l-0.017012 -1.1737 l2.3474 -0.03414 l0.017129 1.1737 c0.01832 1.2629 -0.49072 2.489 -1.4333 3.4524 c-0.3585 0.36622 -0.83942 0.75832 -1.4736 1.1119 c0.5471 0.30212 1.0319 0.66194 1.4435 1.0765 z"></path></g></svg>